# xmcd CD database file
#
# Track frame offsets:
#	183
#	9225
#	28213
#	43948
#	60020
#	68930
#	91718
#	107253
#
# Disc length: 1622 seconds
#
# Revision: 2
# Processed by: cddbd v1.4PL0 Copyright (c) Steve Scherf et al.
# Submitted via: CDex 1.40Release
#
DISCID=54065408
DTITLE=Al Jarreau - Al Jarreau sings Bill Withers
DYEAR=1987
DGENRE=Jazz
TTITLE0=Ain't no sunshine
TTITLE1=Lean on me
TTITLE2=Use me
TTITLE3=Kissing my love
TTITLE4=Grandma's hands
TTITLE5=You
TTITLE6=Lonely town, loneley street
TTITLE7=The same love that made me laugh
EXTD=YEAR: 1987 ID3G: 8
EXTT0=
EXTT1=
EXTT2=
EXTT3=
EXTT4=
EXTT5=
EXTT6=
EXTT7=
PLAYORDER=
